<svg width="100" height="100" viewBox="0 0 100 100" fill="none" xmlns="http://www.w3.org/2000/svg">
<rect width="100" height="100" rx="16" fill="white"/>
<g clip-path="url(#clip0_2_4)">
<path d="M38.6123 73.2779C38.6123 73.2779 35.2963 75.2125 40.9723 75.8675C47.85 76.6536 51.3625 76.5402 58.9403 75.1016C58.9403 75.1016 60.9328 76.3537 63.7166 77.4394C46.7294 84.74 25.2697 77.0164 38.6123 73.2779Z" fill="#5382A1"/>
<path d="M36.5363 63.7524C36.5363 63.7524 32.8169 66.5135 38.4974 67.103C45.8424 67.8613 51.6439 67.9242 61.6814 65.9845C61.6814 65.9845 63.0708 67.3976 65.2543 68.1686C44.7142 74.1893 21.8375 68.6447 36.5358 63.7524" fill="#5382A1"/>
<path d="M54.036 47.5935C58.2219 52.4279 52.9354 56.7759 52.9354 56.7759C52.9354 56.7759 63.5659 51.2741 58.6842 44.384C54.1238 37.9604 50.6289 34.7686 69.5561 23.7633C69.5561 23.7633 39.8476 31.2014 54.036 47.5935Z" fill="#E76F00"/>
<path d="M76.5031 80.3248C76.5031 80.3248 78.9578 82.3527 73.802 83.9222C63.9957 86.8999 32.9882 87.7993 24.3752 84.0405C21.2796 82.6904 27.0861 80.816 28.9125 80.4207C30.8174 80.0075 31.906 80.0855 31.906 80.0855C28.4626 77.652 9.64897 84.8593 22.3499 86.925C56.9853 92.5555 85.4877 84.3882 76.5029 80.3248" fill="#5382A1"/>
<path d="M40.207 53.8826C40.207 53.8826 24.435 57.6387 34.6218 59.0016C38.9227 59.581 47.4981 59.45 55.483 58.7775C62.0106 58.2258 68.5658 57.0519 68.5658 57.0519C68.5658 57.0519 66.2645 58.0419 64.5986 59.1805C48.581 63.405 17.6415 61.4403 26.5484 57.1198C34.0821 53.4696 40.207 53.8826 40.207 53.8826Z" fill="#5382A1"/>
<path d="M68.5004 69.7387C84.7818 61.2568 77.2517 53.1046 71.9979 54.203C70.7116 54.4727 70.1362 54.7045 70.1362 54.7045C70.1362 54.7045 70.6135 53.9536 71.528 53.6288C81.9226 49.966 89.9176 64.4359 68.1715 70.167C68.1715 70.167 68.425 69.9403 68.5004 69.7387Z" fill="#5382A1"/>
<mask id="mask0_2_4" style="mask-type:luminance" maskUnits="userSpaceOnUse" x="38" y="6" width="24" height="48">
<path d="M38.6221 6H61.0323V53.73H38.6221V6Z" fill="white"/>
</mask>
<g mask="url(#mask0_2_4)">
<path d="M58.6834 5.99218C58.6834 5.99218 67.701 15.0356 50.1305 28.9419C36.0431 40.0962 46.9197 46.4572 50.1255 53.7248C41.9018 46.2857 35.8668 39.736 39.9156 33.6421C45.8592 24.6948 62.3215 20.3571 58.6834 5.99194" fill="#E76F00"/>
</g>
<path d="M41.8068 92.7266C57.4354 93.7293 81.4323 92.1699 82 84.756C82 84.756 80.9071 87.5648 69.0856 89.7967C55.7464 92.3134 39.2942 92.0212 29.5379 90.4065C29.5379 90.4065 31.5351 92.064 41.8061 92.7266" fill="#5382A1"/>
</g>
<defs>
<clipPath id="clip0_2_4">
<rect width="64" height="87" fill="white" transform="translate(18 6)"/>
</clipPath>
</defs>
</svg>
