<svg width="100" height="100" viewBox="0 0 100 100" fill="none" xmlns="http://www.w3.org/2000/svg">
<rect width="100" height="100" rx="8" fill="white"/>
<g clip-path="url(#clip0_2_4)">
<path d="M39.324 71.6381C39.324 71.6381 36.2152 73.4393 41.5365 74.0491C47.9844 74.7809 51.2774 74.6754 58.3816 73.336C58.3816 73.336 60.2495 74.5017 62.8593 75.5125C46.9338 82.3096 26.8154 75.1187 39.324 71.6381Z" fill="#5382A1"/>
<path d="M37.3778 62.7695C37.3778 62.7695 33.8908 65.3402 39.2164 65.889C46.1023 66.595 51.5412 66.6535 60.9513 64.8477C60.9513 64.8477 62.2539 66.1633 64.3009 66.8811C45.0446 72.4866 23.5976 67.3244 37.3773 62.7695" fill="#5382A1"/>
<path d="M53.7838 47.725C57.7081 52.226 52.752 56.2741 52.752 56.2741C52.752 56.2741 62.718 51.1517 58.1414 44.7369C53.866 38.7562 50.5896 35.7846 68.3338 25.5382C68.3338 25.5382 40.4822 32.4634 53.7838 47.725Z" fill="#E76F00"/>
<path d="M74.8467 78.199C74.8467 78.199 77.1479 80.087 72.3144 81.5482C63.1209 84.3206 34.0515 85.1579 25.9768 81.6584C23.0746 80.4014 28.5182 78.6563 30.2305 78.2883C32.0163 77.9035 33.0369 77.9761 33.0369 77.9761C29.8087 75.7105 12.1709 82.4208 24.078 84.344C56.5487 89.5861 83.2698 81.9822 74.8464 78.199" fill="#5382A1"/>
<path d="M40.819 53.5804C40.819 53.5804 26.0328 57.0775 35.583 58.3463C39.6151 58.8858 47.6544 58.7638 55.1403 58.1377C61.2599 57.624 67.4054 56.5311 67.4054 56.5311C67.4054 56.5311 65.248 57.4528 63.6862 58.5128C48.6697 62.4461 19.6639 60.6168 28.0141 56.5943C35.0769 53.1959 40.819 53.5804 40.819 53.5804Z" fill="#5382A1"/>
<path d="M67.3441 68.343C82.608 60.446 75.5485 52.8561 70.6231 53.8787C69.4171 54.1298 68.8777 54.3455 68.8777 54.3455C68.8777 54.3455 69.3252 53.6464 70.1825 53.3441C79.9274 49.9338 87.4227 63.4058 67.0358 68.7417C67.0358 68.7417 67.2735 68.5307 67.3441 68.343Z" fill="#5382A1"/>
<mask id="mask0_2_4" style="mask-type:luminance" maskUnits="userSpaceOnUse" x="39" y="9" width="22" height="45">
<path d="M39.3332 9H60.3428V53.4383H39.3332V9Z" fill="white"/>
</mask>
<g mask="url(#mask0_2_4)">
<path d="M58.1407 8.99272C58.1407 8.99272 66.5947 17.4125 50.1224 30.3597C36.9154 40.7447 47.1122 46.667 50.1177 53.4334C42.4079 46.5074 36.7501 40.4094 40.5459 34.7358C46.118 26.4055 61.5514 22.367 58.1407 8.99249" fill="#E76F00"/>
</g>
<path d="M42.3189 89.7455C56.9707 90.679 79.4678 89.2272 80 82.3245C80 82.3245 78.9754 84.9397 67.8928 87.0176C55.3873 89.3607 39.9633 89.0887 30.8168 87.5854C30.8168 87.5854 32.6892 89.1285 42.3182 89.7455" fill="#5382A1"/>
</g>
<defs>
<clipPath id="clip0_2_4">
<rect width="60" height="81" fill="white" transform="translate(20 9)"/>
</clipPath>
</defs>
</svg>
